<svg xmlns="http://www.w3.org/2000/svg" width="23.186" height="26.287" viewBox="0 0 23.186 26.287">
  <path id="Icon_awesome-user-graduate" data-name="Icon awesome-user-graduate" d="M15.461,15.518l-4.618,4.618L6.225,15.518A6.491,6.491,0,0,0,0,21.995v.465a2.324,2.324,0,0,0,2.323,2.323H19.362a2.324,2.324,0,0,0,2.323-2.323v-.465a6.491,6.491,0,0,0-6.225-6.477ZM.658,3.862l.31.073V6.762A1.118,1.118,0,0,0,.925,8.7L.169,11.714c-.082.334.1.678.368.678H2.561c.266,0,.45-.344.368-.678L2.173,8.7A1.118,1.118,0,0,0,2.13,6.762V4.216l3.195.77A6.185,6.185,0,1,0,17.039,7.744a6.085,6.085,0,0,0-.678-2.759l4.661-1.123a.77.77,0,0,0,0-1.525L11.806.111a4.158,4.158,0,0,0-1.922,0L.658,2.333a.774.774,0,0,0,0,1.53Z" transform="translate(0.75 0.754)" fill="none" stroke="#000" stroke-width="1.5"/>
</svg>
